# xmcd
#
# Track frame offsets: 
#        150
#        14265
#        22990
#        41042
#        51155
#        61527
#        73470
#        86292
#        106382
#        121940
#        136795
#        147462
#
# Disc length: 2266 seconds
#
# Revision: 3
# Processed by: cddbd v1.5.1PL2 Copyright (c) Steve Scherf et al.
# Submitted via: ExactAudioCopy v0.90b4
#
DISCID=9f08d80c
DTITLE=Tony Rice - Church Street Blues
DYEAR=1900
DGENRE=Bluegrass
TTITLE0=Church Street Blues
TTITLE1=Cattle in the Cane
TTITLE2=Streets of London
TTITLE3=One More Night
TTITLE4=The Gold Rush
TTITLE5=Any Old Time
TTITLE6=Orphan Annie
TTITLE7=House Carpenter
TTITLE8=Jerusalem Bridge
TTITLE9=Last Thing on My Mind
TTITLE10=Pride of Man
TTITLE11=Wreck of the Edmund Fitzgerald
EXTD=
EXTT0=
EXTT1=
EXTT2=
EXTT3=
EXTT4=
EXTT5=
EXTT6=
EXTT7=
EXTT8=
EXTT9=
EXTT10=
EXTT11=
PLAYORDER=
